<svg id="Layer_1" data-name="Layer 1" xmlns="http://www.w3.org/2000/svg" viewBox="0 0 40.22 12.26"><defs><style>.cls-1{fill:#1a4685;}</style></defs><polygon class="cls-1" points="30.23 12.24 30.23 0 31.79 0 38.12 9.17 38.12 0 40.22 0 40.22 12.24 37.55 12.24 32.24 4.56 32.24 12.24 30.23 12.24"/><path class="cls-1" d="M8.83,18.88h0a3.6,3.6,0,0,0,0,7.18h4.41a1.25,1.25,0,0,1,.54.19,1.39,1.39,0,0,1,.27.21,1.41,1.41,0,0,1,.42,1,1.39,1.39,0,0,1-.42,1,1.13,1.13,0,0,1-.27.22,1.39,1.39,0,0,1-.54.19H13l-3.44,0H6L4.89,31.1l7.78,0h.52a3.81,3.81,0,0,0,.59-.07,3.59,3.59,0,0,0,2.88-3.51A3.55,3.55,0,0,0,15.61,25a3.6,3.6,0,0,0-1.83-1,4,4,0,0,0-.69-.07H9a1.45,1.45,0,0,1-1.44-1.44h0A1.45,1.45,0,0,1,8.87,21.1h3.48l12-.05c-.5,1-1,2-1.48,3H18.19v2.05h3.6l-2.7,5.08h2.45l6.39-12.25Z" transform="translate(-4.89 -18.87)"/><polygon class="cls-1" points="30.23 0 28.92 0 23.54 10.2 21.42 6.14 20.15 8.42 22.11 12.24 24.98 12.24 30.23 2.21 30.23 0"/></svg>